<mxfile host="app.diagrams.net" modified="2021-10-15T12:11:40.433Z" agent="5.0 (Windows NT 10.0; Win64; x64) AppleWebKit/537.36 (KHTML, like Gecko) Chrome/94.0.4606.81 Safari/537.36" etag="KTPaHgNo87NIXETep_dR" version="15.5.2" type="github" pages="2">
  <diagram id="VW5LPrACnkIFLucvH3J6" name="Page-7">
    <mxGraphModel dx="1422" dy="1906" grid="1" gridSize="10" guides="1" tooltips="1" connect="1" arrows="1" fold="1" page="1" pageScale="1" pageWidth="850" pageHeight="1100" math="0" shadow="0">
      <root>
        <mxCell id="zYFwCsUys5fnGxuTsJfF-0" />
        <mxCell id="zYFwCsUys5fnGxuTsJfF-1" parent="zYFwCsUys5fnGxuTsJfF-0" />
        <mxCell id="naavFsXO8oKi1SzQ3PLB-16" style="edgeStyle=orthogonalEdgeStyle;rounded=0;orthogonalLoop=1;jettySize=auto;html=1;exitX=1;exitY=0.5;exitDx=0;exitDy=0;entryX=0;entryY=0.75;entryDx=0;entryDy=0;fontStyle=1" parent="zYFwCsUys5fnGxuTsJfF-1" source="naavFsXO8oKi1SzQ3PLB-0" target="naavFsXO8oKi1SzQ3PLB-6" edge="1">
          <mxGeometry relative="1" as="geometry" />
        </mxCell>
        <mxCell id="naavFsXO8oKi1SzQ3PLB-17" style="edgeStyle=orthogonalEdgeStyle;rounded=0;orthogonalLoop=1;jettySize=auto;html=1;exitX=1;exitY=0.5;exitDx=0;exitDy=0;entryX=0;entryY=0.75;entryDx=0;entryDy=0;fontStyle=1" parent="zYFwCsUys5fnGxuTsJfF-1" source="naavFsXO8oKi1SzQ3PLB-0" target="naavFsXO8oKi1SzQ3PLB-5" edge="1">
          <mxGeometry relative="1" as="geometry" />
        </mxCell>
        <mxCell id="naavFsXO8oKi1SzQ3PLB-18" style="edgeStyle=orthogonalEdgeStyle;rounded=0;orthogonalLoop=1;jettySize=auto;html=1;exitX=1;exitY=0.5;exitDx=0;exitDy=0;entryX=0;entryY=0.5;entryDx=0;entryDy=0;fontStyle=1" parent="zYFwCsUys5fnGxuTsJfF-1" source="naavFsXO8oKi1SzQ3PLB-0" target="naavFsXO8oKi1SzQ3PLB-3" edge="1">
          <mxGeometry relative="1" as="geometry" />
        </mxCell>
        <mxCell id="naavFsXO8oKi1SzQ3PLB-20" style="edgeStyle=orthogonalEdgeStyle;rounded=0;orthogonalLoop=1;jettySize=auto;html=1;exitX=1;exitY=0.5;exitDx=0;exitDy=0;entryX=-0.015;entryY=0.405;entryDx=0;entryDy=0;entryPerimeter=0;fontStyle=1" parent="zYFwCsUys5fnGxuTsJfF-1" source="naavFsXO8oKi1SzQ3PLB-0" target="naavFsXO8oKi1SzQ3PLB-4" edge="1">
          <mxGeometry relative="1" as="geometry" />
        </mxCell>
        <mxCell id="naavFsXO8oKi1SzQ3PLB-21" style="edgeStyle=orthogonalEdgeStyle;rounded=0;orthogonalLoop=1;jettySize=auto;html=1;exitX=1;exitY=0.75;exitDx=0;exitDy=0;entryX=0;entryY=0.5;entryDx=0;entryDy=0;fontStyle=1" parent="zYFwCsUys5fnGxuTsJfF-1" source="naavFsXO8oKi1SzQ3PLB-0" target="naavFsXO8oKi1SzQ3PLB-7" edge="1">
          <mxGeometry relative="1" as="geometry" />
        </mxCell>
        <mxCell id="naavFsXO8oKi1SzQ3PLB-22" style="edgeStyle=orthogonalEdgeStyle;rounded=0;orthogonalLoop=1;jettySize=auto;html=1;exitX=1;exitY=0.75;exitDx=0;exitDy=0;entryX=0;entryY=0.5;entryDx=0;entryDy=0;fontStyle=1" parent="zYFwCsUys5fnGxuTsJfF-1" source="naavFsXO8oKi1SzQ3PLB-0" target="naavFsXO8oKi1SzQ3PLB-8" edge="1">
          <mxGeometry relative="1" as="geometry" />
        </mxCell>
        <mxCell id="naavFsXO8oKi1SzQ3PLB-24" style="edgeStyle=orthogonalEdgeStyle;rounded=0;orthogonalLoop=1;jettySize=auto;html=1;exitX=1;exitY=0.75;exitDx=0;exitDy=0;entryX=0;entryY=0.5;entryDx=0;entryDy=0;fontStyle=1" parent="zYFwCsUys5fnGxuTsJfF-1" source="naavFsXO8oKi1SzQ3PLB-0" target="naavFsXO8oKi1SzQ3PLB-9" edge="1">
          <mxGeometry relative="1" as="geometry" />
        </mxCell>
        <mxCell id="naavFsXO8oKi1SzQ3PLB-25" style="edgeStyle=orthogonalEdgeStyle;rounded=0;orthogonalLoop=1;jettySize=auto;html=1;exitX=1;exitY=0.75;exitDx=0;exitDy=0;entryX=0;entryY=0.5;entryDx=0;entryDy=0;fontStyle=1" parent="zYFwCsUys5fnGxuTsJfF-1" source="naavFsXO8oKi1SzQ3PLB-0" target="naavFsXO8oKi1SzQ3PLB-10" edge="1">
          <mxGeometry relative="1" as="geometry" />
        </mxCell>
        <mxCell id="naavFsXO8oKi1SzQ3PLB-0" value="&lt;span&gt;DATA SIENCE&lt;/span&gt;" style="whiteSpace=wrap;html=1;fontStyle=1;fillColor=#f5f5f5;fontColor=#333333;strokeColor=#666666;" parent="zYFwCsUys5fnGxuTsJfF-1" vertex="1">
          <mxGeometry x="130" y="150" width="120" height="60" as="geometry" />
        </mxCell>
        <mxCell id="naavFsXO8oKi1SzQ3PLB-26" style="edgeStyle=orthogonalEdgeStyle;rounded=0;orthogonalLoop=1;jettySize=auto;html=1;exitX=1;exitY=0.5;exitDx=0;exitDy=0;entryX=0;entryY=0.5;entryDx=0;entryDy=0;fontStyle=1" parent="zYFwCsUys5fnGxuTsJfF-1" source="naavFsXO8oKi1SzQ3PLB-1" target="naavFsXO8oKi1SzQ3PLB-12" edge="1">
          <mxGeometry relative="1" as="geometry" />
        </mxCell>
        <mxCell id="naavFsXO8oKi1SzQ3PLB-27" style="edgeStyle=orthogonalEdgeStyle;rounded=0;orthogonalLoop=1;jettySize=auto;html=1;exitX=1;exitY=0.25;exitDx=0;exitDy=0;entryX=0;entryY=0.75;entryDx=0;entryDy=0;fontStyle=1" parent="zYFwCsUys5fnGxuTsJfF-1" source="naavFsXO8oKi1SzQ3PLB-1" target="naavFsXO8oKi1SzQ3PLB-11" edge="1">
          <mxGeometry relative="1" as="geometry" />
        </mxCell>
        <mxCell id="naavFsXO8oKi1SzQ3PLB-31" style="edgeStyle=orthogonalEdgeStyle;rounded=0;orthogonalLoop=1;jettySize=auto;html=1;exitX=1;exitY=0.75;exitDx=0;exitDy=0;entryX=0;entryY=0.5;entryDx=0;entryDy=0;fontStyle=1" parent="zYFwCsUys5fnGxuTsJfF-1" source="naavFsXO8oKi1SzQ3PLB-1" target="naavFsXO8oKi1SzQ3PLB-14" edge="1">
          <mxGeometry relative="1" as="geometry" />
        </mxCell>
        <mxCell id="naavFsXO8oKi1SzQ3PLB-1" value="&lt;span&gt;ML&lt;/span&gt;" style="whiteSpace=wrap;html=1;fontStyle=1;fillColor=#dae8fc;strokeColor=#6c8ebf;" parent="zYFwCsUys5fnGxuTsJfF-1" vertex="1">
          <mxGeometry x="690" y="110" width="120" height="60" as="geometry" />
        </mxCell>
        <mxCell id="naavFsXO8oKi1SzQ3PLB-33" style="edgeStyle=orthogonalEdgeStyle;rounded=0;orthogonalLoop=1;jettySize=auto;html=1;exitX=1;exitY=0.5;exitDx=0;exitDy=0;entryX=0;entryY=0.5;entryDx=0;entryDy=0;fontStyle=1" parent="zYFwCsUys5fnGxuTsJfF-1" source="naavFsXO8oKi1SzQ3PLB-2" target="naavFsXO8oKi1SzQ3PLB-15" edge="1">
          <mxGeometry relative="1" as="geometry" />
        </mxCell>
        <mxCell id="naavFsXO8oKi1SzQ3PLB-34" style="edgeStyle=orthogonalEdgeStyle;rounded=0;orthogonalLoop=1;jettySize=auto;html=1;exitX=1;exitY=0.5;exitDx=0;exitDy=0;entryX=0;entryY=0.5;entryDx=0;entryDy=0;fontStyle=1" parent="zYFwCsUys5fnGxuTsJfF-1" source="naavFsXO8oKi1SzQ3PLB-2" target="naavFsXO8oKi1SzQ3PLB-13" edge="1">
          <mxGeometry relative="1" as="geometry" />
        </mxCell>
        <mxCell id="naavFsXO8oKi1SzQ3PLB-2" value="&lt;span&gt;Neural Networks&amp;nbsp;&lt;/span&gt;" style="whiteSpace=wrap;html=1;fontStyle=1;fillColor=#d5e8d4;strokeColor=#82b366;" parent="zYFwCsUys5fnGxuTsJfF-1" vertex="1">
          <mxGeometry x="1140" y="110" width="120" height="60" as="geometry" />
        </mxCell>
        <mxCell id="naavFsXO8oKi1SzQ3PLB-3" value="STAT 1" style="whiteSpace=wrap;html=1;fontStyle=1" parent="zYFwCsUys5fnGxuTsJfF-1" vertex="1">
          <mxGeometry x="340" y="40" width="120" height="60" as="geometry" />
        </mxCell>
        <mxCell id="naavFsXO8oKi1SzQ3PLB-4" value="STAT 2" style="whiteSpace=wrap;html=1;fontStyle=1" parent="zYFwCsUys5fnGxuTsJfF-1" vertex="1">
          <mxGeometry x="340" y="120" width="120" height="60" as="geometry" />
        </mxCell>
        <mxCell id="naavFsXO8oKi1SzQ3PLB-5" value="MATHS 2" style="whiteSpace=wrap;html=1;fontStyle=1" parent="zYFwCsUys5fnGxuTsJfF-1" vertex="1">
          <mxGeometry x="340" y="-40" width="120" height="60" as="geometry" />
        </mxCell>
        <mxCell id="naavFsXO8oKi1SzQ3PLB-6" value="MATHS 1" style="whiteSpace=wrap;html=1;fontStyle=1" parent="zYFwCsUys5fnGxuTsJfF-1" vertex="1">
          <mxGeometry x="340" y="-110" width="120" height="60" as="geometry" />
        </mxCell>
        <mxCell id="naavFsXO8oKi1SzQ3PLB-7" value="PYTHON BASICS" style="whiteSpace=wrap;html=1;fontStyle=1" parent="zYFwCsUys5fnGxuTsJfF-1" vertex="1">
          <mxGeometry x="340" y="200" width="120" height="60" as="geometry" />
        </mxCell>
        <mxCell id="naavFsXO8oKi1SzQ3PLB-8" value="PYTHON DSA" style="whiteSpace=wrap;html=1;fontStyle=1" parent="zYFwCsUys5fnGxuTsJfF-1" vertex="1">
          <mxGeometry x="340" y="280" width="120" height="60" as="geometry" />
        </mxCell>
        <mxCell id="naavFsXO8oKi1SzQ3PLB-9" value="DBMS" style="whiteSpace=wrap;html=1;fontStyle=1" parent="zYFwCsUys5fnGxuTsJfF-1" vertex="1">
          <mxGeometry x="340" y="360" width="120" height="60" as="geometry" />
        </mxCell>
        <mxCell id="naavFsXO8oKi1SzQ3PLB-10" value="Web App Dev" style="whiteSpace=wrap;html=1;fontStyle=1" parent="zYFwCsUys5fnGxuTsJfF-1" vertex="1">
          <mxGeometry x="340" y="440" width="120" height="60" as="geometry" />
        </mxCell>
        <mxCell id="naavFsXO8oKi1SzQ3PLB-11" value="Google course" style="whiteSpace=wrap;html=1;fontStyle=1" parent="zYFwCsUys5fnGxuTsJfF-1" vertex="1">
          <mxGeometry x="870" y="10" width="120" height="60" as="geometry" />
        </mxCell>
        <mxCell id="naavFsXO8oKi1SzQ3PLB-12" value="Zero to mastery course" style="whiteSpace=wrap;html=1;fontStyle=1" parent="zYFwCsUys5fnGxuTsJfF-1" vertex="1">
          <mxGeometry x="870" y="110" width="120" height="60" as="geometry" />
        </mxCell>
        <mxCell id="naavFsXO8oKi1SzQ3PLB-13" value="Andrew course" style="whiteSpace=wrap;html=1;fontStyle=1" parent="zYFwCsUys5fnGxuTsJfF-1" vertex="1">
          <mxGeometry x="1305" y="20" width="120" height="60" as="geometry" />
        </mxCell>
        <mxCell id="naavFsXO8oKi1SzQ3PLB-14" value="NLP Course" style="whiteSpace=wrap;html=1;fontStyle=1" parent="zYFwCsUys5fnGxuTsJfF-1" vertex="1">
          <mxGeometry x="870" y="210" width="120" height="60" as="geometry" />
        </mxCell>
        <mxCell id="naavFsXO8oKi1SzQ3PLB-15" value="MIT COURSE" style="whiteSpace=wrap;html=1;fontStyle=1" parent="zYFwCsUys5fnGxuTsJfF-1" vertex="1">
          <mxGeometry x="1305" y="110" width="120" height="60" as="geometry" />
        </mxCell>
      </root>
    </mxGraphModel>
  </diagram>
  <diagram id="cuUnuu8qVJEb749d6Opi" name="Page-2">
    <mxGraphModel dx="1422" dy="806" grid="1" gridSize="10" guides="1" tooltips="1" connect="1" arrows="1" fold="1" page="1" pageScale="1" pageWidth="850" pageHeight="1100" math="0" shadow="0">
      <root>
        <mxCell id="hnWGfaP_TE1rImXRO845-0" />
        <mxCell id="hnWGfaP_TE1rImXRO845-1" parent="hnWGfaP_TE1rImXRO845-0" />
        <mxCell id="6yq1hyyVoBi7szEFriC6-22" style="edgeStyle=none;rounded=0;orthogonalLoop=1;jettySize=auto;html=1;exitX=0;exitY=0.5;exitDx=0;exitDy=0;exitPerimeter=0;entryX=1.025;entryY=0.212;entryDx=0;entryDy=0;entryPerimeter=0;fontSize=11;fontColor=default;" edge="1" parent="hnWGfaP_TE1rImXRO845-1" source="hnWGfaP_TE1rImXRO845-4" target="6yq1hyyVoBi7szEFriC6-18">
          <mxGeometry relative="1" as="geometry" />
        </mxCell>
        <mxCell id="6yq1hyyVoBi7szEFriC6-24" style="edgeStyle=none;rounded=0;orthogonalLoop=1;jettySize=auto;html=1;exitX=0.5;exitY=1;exitDx=0;exitDy=0;exitPerimeter=0;entryX=0.5;entryY=0;entryDx=0;entryDy=0;fontSize=11;fontColor=default;" edge="1" parent="hnWGfaP_TE1rImXRO845-1" source="hnWGfaP_TE1rImXRO845-4" target="6yq1hyyVoBi7szEFriC6-23">
          <mxGeometry relative="1" as="geometry" />
        </mxCell>
        <mxCell id="hnWGfaP_TE1rImXRO845-4" value="Profile" style="html=1;strokeColor=none;fillColor=#0079D6;labelPosition=center;verticalLabelPosition=middle;verticalAlign=top;align=center;fontSize=12;outlineConnect=0;spacingTop=-6;fontColor=#FFFFFF;sketch=0;shape=mxgraph.sitemap.profile;" parent="hnWGfaP_TE1rImXRO845-1" vertex="1">
          <mxGeometry x="417.5" y="505" width="75" height="50" as="geometry" />
        </mxCell>
        <mxCell id="hnWGfaP_TE1rImXRO845-11" style="edgeStyle=orthogonalEdgeStyle;rounded=0;orthogonalLoop=1;jettySize=auto;html=1;exitX=1;exitY=0.5;exitDx=0;exitDy=0;exitPerimeter=0;entryX=0;entryY=0.5;entryDx=0;entryDy=0;" parent="hnWGfaP_TE1rImXRO845-1" source="hnWGfaP_TE1rImXRO845-5" target="hnWGfaP_TE1rImXRO845-9" edge="1">
          <mxGeometry relative="1" as="geometry" />
        </mxCell>
        <mxCell id="hnWGfaP_TE1rImXRO845-5" value="" style="verticalLabelPosition=bottom;html=1;verticalAlign=top;align=center;strokeColor=none;fillColor=#000000;shape=mxgraph.azure.cloud_services_configuration_file;pointerEvents=1;" parent="hnWGfaP_TE1rImXRO845-1" vertex="1">
          <mxGeometry x="40" y="30" width="47.5" height="50" as="geometry" />
        </mxCell>
        <mxCell id="hnWGfaP_TE1rImXRO845-7" value="&lt;b&gt;PARSED&lt;/b&gt;" style="text;html=1;align=center;verticalAlign=middle;resizable=0;points=[];autosize=1;strokeColor=none;fillColor=none;" parent="hnWGfaP_TE1rImXRO845-1" vertex="1">
          <mxGeometry x="425" y="485" width="60" height="20" as="geometry" />
        </mxCell>
        <mxCell id="6yq1hyyVoBi7szEFriC6-1" style="edgeStyle=none;rounded=0;orthogonalLoop=1;jettySize=auto;html=1;exitX=1;exitY=0.5;exitDx=0;exitDy=0;entryX=0;entryY=0.5;entryDx=0;entryDy=0;fontColor=default;" edge="1" parent="hnWGfaP_TE1rImXRO845-1" source="hnWGfaP_TE1rImXRO845-9" target="hnWGfaP_TE1rImXRO845-16">
          <mxGeometry relative="1" as="geometry" />
        </mxCell>
        <mxCell id="hnWGfaP_TE1rImXRO845-9" value="" style="shape=image;html=1;verticalLabelPosition=bottom;verticalAlign=top;imageAspect=1;aspect=fixed;image=img/clipart/Gear_128x128.png" parent="hnWGfaP_TE1rImXRO845-1" vertex="1">
          <mxGeometry x="200" y="35" width="34.1" height="40" as="geometry" />
        </mxCell>
        <mxCell id="6yq1hyyVoBi7szEFriC6-8" style="edgeStyle=none;rounded=0;orthogonalLoop=1;jettySize=auto;html=1;exitX=0;exitY=0.5;exitDx=0;exitDy=0;entryX=1;entryY=0.5;entryDx=0;entryDy=0;fontColor=default;" edge="1" parent="hnWGfaP_TE1rImXRO845-1" target="6yq1hyyVoBi7szEFriC6-5">
          <mxGeometry relative="1" as="geometry">
            <mxPoint x="950" y="530" as="sourcePoint" />
          </mxGeometry>
        </mxCell>
        <mxCell id="hnWGfaP_TE1rImXRO845-13" value="" style="shape=image;verticalLabelPosition=bottom;labelBackgroundColor=#ffffff;verticalAlign=top;aspect=fixed;imageAspect=0;image=https://cdn4.iconfinder.com/data/icons/customer-engagement-color/64/research-marketing-study-explore-analysis-512.png;" parent="hnWGfaP_TE1rImXRO845-1" vertex="1">
          <mxGeometry x="950" y="495" width="70" height="70" as="geometry" />
        </mxCell>
        <mxCell id="hnWGfaP_TE1rImXRO845-19" style="edgeStyle=none;rounded=0;orthogonalLoop=1;jettySize=auto;html=1;exitX=0;exitY=1;exitDx=0;exitDy=0;entryX=0.5;entryY=0;entryDx=0;entryDy=0;fontColor=none;" parent="hnWGfaP_TE1rImXRO845-1" source="hnWGfaP_TE1rImXRO845-16" edge="1">
          <mxGeometry relative="1" as="geometry">
            <mxPoint x="390" y="120" as="targetPoint" />
          </mxGeometry>
        </mxCell>
        <mxCell id="hnWGfaP_TE1rImXRO845-22" style="edgeStyle=none;rounded=0;orthogonalLoop=1;jettySize=auto;html=1;exitX=1;exitY=1;exitDx=0;exitDy=0;entryX=0.5;entryY=0;entryDx=0;entryDy=0;fontColor=none;" parent="hnWGfaP_TE1rImXRO845-1" source="hnWGfaP_TE1rImXRO845-16" target="hnWGfaP_TE1rImXRO845-17" edge="1">
          <mxGeometry relative="1" as="geometry" />
        </mxCell>
        <mxCell id="hnWGfaP_TE1rImXRO845-16" value="" style="shape=image;verticalLabelPosition=bottom;labelBackgroundColor=#ffffff;verticalAlign=top;aspect=fixed;imageAspect=0;image=https://static.thenounproject.com/png/2475108-200.png;" parent="hnWGfaP_TE1rImXRO845-1" vertex="1">
          <mxGeometry x="425" y="20" width="70" height="70" as="geometry" />
        </mxCell>
        <mxCell id="6yq1hyyVoBi7szEFriC6-41" style="edgeStyle=none;rounded=0;orthogonalLoop=1;jettySize=auto;html=1;exitX=0.5;exitY=1;exitDx=0;exitDy=0;entryX=0.5;entryY=0;entryDx=0;entryDy=0;fontSize=11;fontColor=default;" edge="1" parent="hnWGfaP_TE1rImXRO845-1" source="hnWGfaP_TE1rImXRO845-17" target="6yq1hyyVoBi7szEFriC6-38">
          <mxGeometry relative="1" as="geometry" />
        </mxCell>
        <mxCell id="hnWGfaP_TE1rImXRO845-17" value="" style="shape=image;html=1;verticalAlign=top;verticalLabelPosition=bottom;labelBackgroundColor=#ffffff;imageAspect=0;aspect=fixed;image=https://cdn4.iconfinder.com/data/icons/tidee-science/24/025_006_neuron_connections_neural_network-128.png" parent="hnWGfaP_TE1rImXRO845-1" vertex="1">
          <mxGeometry x="510" y="120" width="30" height="30" as="geometry" />
        </mxCell>
        <mxCell id="6yq1hyyVoBi7szEFriC6-39" style="edgeStyle=none;rounded=0;orthogonalLoop=1;jettySize=auto;html=1;exitX=0.5;exitY=1;exitDx=0;exitDy=0;fontSize=11;fontColor=default;" edge="1" parent="hnWGfaP_TE1rImXRO845-1" source="6yq1hyyVoBi7szEFriC6-0" target="6yq1hyyVoBi7szEFriC6-35">
          <mxGeometry relative="1" as="geometry" />
        </mxCell>
        <mxCell id="6yq1hyyVoBi7szEFriC6-0" value="" style="shape=image;verticalLabelPosition=bottom;labelBackgroundColor=#ffffff;verticalAlign=top;aspect=fixed;imageAspect=0;image=data:image/png,iVBORw0KGgoAAAANSUhEUgAAAfQAAAH0CAMAAAD8CC+4AAAAAXNSR0IArs4c6QAAAARnQU1BAACxjwv8YQUAAAMAUExURQAAAAAAAAAAAAAAAAAAAAAAAAAAAAAAAAAAAAAAAAAAAAAAAAAAAAAAAAAAAAAAAAAAAAAAAAAAAAAAAAAAAAAAAAAAAAAAAAAAAAAAAAAAAAAAAAAAAAAAAAAAAAAAAAAAAAAAAAAAAAAAAAAAAAAAAAAAAAAAAAAAAAAAMwAAZgAAmQAAzAAA/wAzAAAzMwAzZgAzmQAzzAAz/wBmAABmMwBmZgBmmQBmzABm/wCZAACZMwCZZgCZmQCZzACZ/wDMAADMMwDMZgDMmQDMzADM/wD/AAD/MwD/ZgD/mQD/zAD//zMAADMAMzMAZjMAmTMAzDMA/zMzADMzMzMzZjMzmTMzzDMz/zNmADNmMzNmZjNmmTNmzDNm/zOZADOZMzOZZjOZmTOZzDOZ/zPMADPMMzPMZjPMmTPMzDPM/zP/ADP/MzP/ZjP/mTP/zDP//2YAAGYAM2YAZmYAmWYAzGYA/2YzAGYzM2YzZmYzmWYzzGYz/2ZmAGZmM2ZmZmZmmWZmzGZm/2aZAGaZM2aZZmaZmWaZzGaZ/2bMAGbMM2bMZmbMmWbMzGbM/2b/AGb/M2b/Zmb/mWb/zGb//5kAAJkAM5kAZpkAmZkAzJkA/5kzAJkzM5kzZpkzmZkzzJkz/5lmAJlmM5lmZplmmZlmzJlm/5mZAJmZM5mZZpmZmZmZzJmZ/5nMAJnMM5nMZpnMmZnMzJnM/5n/AJn/M5n/Zpn/mZn/zJn//8wAAMwAM8wAZswAmcwAzMwA/8wzAMwzM8wzZswzmcwzzMwz/8xmAMxmM8xmZsxmmcxmzMxm/8yZAMyZM8yZZsyZmcyZzMyZ/8zMAMzMM8zMZszMmczMzMzM/8z/AMz/M8z/Zsz/mcz/zMz///8AAP8AM/8AZv8Amf8AzP8A//8zAP8zM/8zZv8zmf8zzP8z//9mAP9mM/9mZv9mmf9mzP9m//+ZAP+ZM/+ZZv+Zmf+ZzP+Z///MAP/MM//MZv/Mmf/MzP/M////AP//M///Zv//mf//zP///69WTRwAAAAodFJOUzS6eepUm9ti/oTKq0OScfGkWuHRsopLacI6AAAAAAAAAAAAAAAAAAD8B+7uAAAACXBIWXMAAA7DAAAOwwHHb6hkAAAqoklEQVR4Xu2d23riOgxGCxS6ObRQ6JH3f9ANVC0J/LIlWXacSdbVfOMSQlbigyw7D8eRwTFKHyCj9AEySh8go/QBMkofIKP0ATJKHyCj9AEySh8go/QBMkofIKP0ATJKHyCj9AEySh8go/QBMkofIKP0ATJKHyD/gPTvj6fl8+5rsd9u/2uwPUzmy0f6GwWPy/nboXWk/7aLw2T9PH3a0J/0nT5L//icT/bkhWU7eRa72rx/tW3fs/+aTz/oz3tLP6V/v6wPZEHCdv1KHwzwuIsJvzKbvBvqkGron/SnZ43vP57p4wzPcuO/LNaf9OG+0S/pn296N39M2Gp+M6E/UbOf97Gd74/0zfuCrrSZLzrUDV9UbGO2610b3xPpTymPeANQyT9TUQLbXb9a+D5I/1j7GD+z/6aDEg/J1ccPs3c6YB+oXvr384yuqxMvdOALn/SfHkx6U81XLv3F6UFsMqdjn3Co2psspnTcyqla+rtftd7kjQ5/XNN/+DHrhfZ6pX/7K/ll/fMNWb5g1mo+6qRW6R8ruohZuNTwznX7H7PqYzZ1St+kDZ3jnB5Hzz7cDYvKIzZVSn+ji5eRzTf9Iw87+iV1UqH0fG15g0WGYUGTbc11fHXSp3l67OVZ0Q+qkMqkbzI/gCXZCuZzu6Eu6Tu6Xv8ItbbsNUl/TQy4bveLw+TEej2ZfB2SDjY7fE0mb+vTYQ77xczc4izol1VGRdKNj/l2tX5+eYSDpM2nfqpmu37Bx3qdvu8m6jvpiT5eFfVI17fm29X8JTrJsVENBt6ix/t+eo4n5jVY0udqohbpL3SNpKye5VPY4ryYCX0gzqM8Z6vChr0S6apwzNdSGfES3lHKyZKPd5l4Jl+nQ+qQLk91nM0ts9Yf9OkgluyXqeTMq+vO1SD9W9o9Wrzf5L2IeaUjBLCOqqfxqaED/WktVCD9VdbDTktIeqejsERSpEN8R8cdlVnvXvqULkyYSWrqYWRwsKc/M7KMVFZ1We9c+pIuS4iZw7gn0qwnp7M+hcdxVVnvWrrA+cJnwirY9Ho4CU8VyYeD+elYetz5wWva4pEOCPH5kmBOXyMfs2u6lR51fnBcRRBodrf0J8mEMn7qmWHvVHqsD7d3nZwM5MQldN1v+Aw87NXkxXcpPVjhnh4/57B1IEHKOvxH8EFft/oklQ6lP4TH5/4xa7Z+n9Ef+MC3WbV05jqUHhzj7DMklLIxFMqD9+KDvZsrWQrRnfRg1DpLV/eJDn6HexeLjQR12oX6o7OzCIUuczzmZ+jwd1CxI1wvvo65l66kh2ZAnGvbK0yD4tuk/8B156rIqehKeqATl28xGDNrn6V/xVmn4k7pSDo/rpllqtrPMFNtfqP0JswdVkNKRTfS+VSWrEsEmDYlU/IiE+yvIBu+G+n0++/5WzqeB/qWG6jQHdyFyNGDUNKJdLbnnjuJkL7mBir0B3dcul/A3oV0Nh6afbMeGJPL9+jhOHP3j3oX0rmwTP54FWxmM3Yj5vQVbTqPy3UgndsNoMCmXHDhQ85+BAzNdT7x0oF0JkRSIskAjtnyjNgI+o42Xbfq5aUzE6rZwnBN4FAxa20Lb7PELMxkykvHLXqZJfxwyiXvGkPYd+w4naK49A397jaFerSwlskbLYEBoY4n1ktL/8Zxqoyx1ybwjsv83XDCbeqZq6OmpPSH5YSZZyk2iKHva5H5EnAJ96v3Qnf6PcWkf8z5bNRyKwHoC1tQUTYCCfeTbvrxZaRHtnKmvyoAfWELKspGeG3NqoNQTQnpn5F1ZAW3SqdvbEFF+YjtsfFVeo+S/NKjr8QpGYumr2xBRfmI74mwLbv8Jbd0we5BJes3+soWVJSR2G1/5qvgPHte6QLlZSed0OWnooxILsN//y2K1fI5pUc3ArhQNFWwG+mRpTx/7Astd8sn/TPYYb9Cf14GIL3EnJekfr+wL/K0Z5MeXA7eoOy+uWCGr4R0xV52iwJx+UzSZTX7mbLD1I6kC/Y5upI5T/BEHumxkWkD+kQhOpIORw08uQMXOaTLtg76oXDCWFfSpY0dkfl9IBmki3flPFN4E82upEu2U2qR9bq4SxfvBPhD4dT/rqTjLIIQuRZxnvGWrn0HEn2sFF1Jlw/aruRr2Z2la951tj1M5qU33+lM+uvz20ErPtuMs690YXO+2E0dd43S0Jl04uNlvpK732a6Sq7SJVsi7+cd+b7QtfQfPtfSjk+e9GxP6fHR+b7g1DmkDuknHpaSJyTTymZH6dG7N/6ujOxUI/3MUhLDypEj7yc95jzrQhIpVUk/jeQEk65b/0fFTXrEeSU7o1Ym/URs0/AT7rEML+nhU88/hyCkPunH4ws4qTbeObNO0oPnve++Lf+lRumC1APnRBMf6cGeaNc99iZ1So/tFe99DV2khza8XnS6gOeWWqVH8+hcu8Ee0kN5IZW9iq5e6cdNeODuad1Bemj6vHQaf4yKpcfmXx3b9XTpgVTPWVVV+5mqpUf6Rn6JZenS+S5I2ZxHEZVLD89Suk1JJkvnb86a3k/0S+3Sjx+h0ZvXVFWqdL7TWVkX7ofqpQereK9TTZTO7ptf0xupGvRAemjw5jT7kiidTuaeOp33QnpoOOSTTJMmnc3srdR5P6SHBkQujWaSdPaWrLI9P9MP6aEXWXlMviRJp/O4Qz2p9rpcTw77xeFrt8ybTNWh9Mfl7uvyG9dLwVwp34l3SI1Okc71M3UNz+Pu5gcunvPFdDqSvnm+SZLZ72Izj+BMf3DozCVI53bVUJ0V3pxkkWvXpU6kT2Fa1CwSTWetp2+omiCdzuEWzUXkRyfbPKtZO5C+5NvncHeXtZ48oWGXzryYRnFKgctxYp+jdS8u/SmYHxG+tbmPJp+xWTq3O5q84x7NBc2wMXRp6dyT8Uew/8M9FKmTGmbpjDLxKwbj+2wpDiamrHTJYs5toGZklz0mtn1W6Ywz8RXEL7q4wzu7rqh04f4TgVQo7giJ52yVztQ80gZdvAmLcxZGSeniBbyBFpHLq0hb+GKUzuwpI22FFRvv+HbnCkrn56LuCPTiuSuVlAtvlI4fdOn10yxo9t2OvZx06d5xFwKpUEwELGnbFpt0pkUW1sW6jQtcd6UpJz04HL0j8OAyB0pJlLRJpy++QdrQ0J9L8cy6KiZdsjaxQeAkuM4cFVswSWeqZyqNobwernmgpaSrGrAzgTubqVYTstFM0ulrbxAOHtUbLXluTFNI+gMdW0FgtoF5SuydHYt0fBtLIyn05xr8UiwLSVduG3cmcBrMu2ntzZ5FOu5aCMdWghXZ97j14MtIV/Xcfwn0zJjK0TxsM0jHwTjpfUd/rsNtE44y0oNrFjhC54EreHPCnEE6uHAnhA+juofzA306mSLS9TsFXgj0V5kjWgNXeum47pI2u4IpCIRXomUR6aYWLJx8gg9pfdT10vG6ZOFxuNZu9nyZWnlVxGcZwg0drqUKsbs8mR9zLm4TqizxZ4zzUXrp9H1tpEF35iFoTDRFZ6AjVCu9cYmYNi5UneGOlLGvo5aOp1qoMAqs3dv7J8nfDwCpVXorivEIH9zgoBf35ahQiVo61CYeSNPft7mppIx9PaJS6Te9NBxbpUIIbhhtCwy00vF3S9sW+FvvkgjUcdomdUq/G9DC2GrwMuKADxXq0EqHPS1xWhOKMtz3nk2xjV/qlH6fyY8q+GAgGyclmuYltNJhYyROb0G3DIhEGcd1F6qUDp4K1KUND0zhsMm09EEpHaaDyGe80XmDOk2YQAepUjpIg0PVWbhrhCM00pa1iVI63NBdXsWgdomKmmhfD9EkLJ0bImcGVYVU1CQyAoPRXUueuFI6fVMbKhOAumhU1CSlUQ9Lpz8qDQq7UFGTyPwFvixUqEEnHfa+FRGCUfoVKmoSm7SCwxrD9kM66bDvrvhWYfWuebHbLWHpKV3EBNAloqImsccHhuUMUTmddNgkUpkE1JEDU0UpEfgqO3KgW466xNH2OfX6EyrpsP+o2YEAjVNAUCmlu1WldDC+QV3iaIYrnLrQL+tWSYcZHJpJXVhvU9mVlM57ndJB950KWkQbSpg4pa/fVdLRmEE1HQ17aHeVWlLDW6f0u0cdRlriiSiwK0dlclTS6Uta6EL+9KE2N9FHPGEvpU7pt40gznqjwgCwqgz/ZIBGOhyw6VJ28FxKK7qjej/vPZVKb9dneCJRkmZIf9pCHZ/RSIfRUSoTwkybfv1NSLymaqlV+n+LvzPbMBnSksgm+qg64UsjHTXpypR0JoX7dJcvXzeb19tNmP7YHhCo8ddLp4P5wQ0+Fs+vm+/HdzZXls4xCByqa3fj0kinr2ihjQcZHzX8EKCWUS3dPzHSmAUiSyKnP26h3ZhCIR1O6FKZGGOwjT59Q6XScXc1iuz5cahuNdLRJdavIzYFXpiuSq3STX1R4aWEKYRUJkUhHeWpqjuOzGAlAn32llqlG9YvigNrMCqqbNQV0lG3ybCzoyH0woUna5XOZXqHEKfAoKpSqUEhnb6gheLjv3CL7HnYiq9a6YZGTJwBg9oOZYUrt+bSjzujbvFYj/VKV08fyLWhrrBywz25dDRClI0yblFW8Hygt17p2jtbkd8IQx1UJkQuHcXjbLvd6FZ1BlbpVSwdfVMATTNJH2khXDNMyL8NzYMYt/ZTbLEWHMnULF3VrKsmMFAkVhcjk0tHP8K6G788RBMcvVYtPfBKjlt0ylDAT7eUWy6dDt+CivTgRZj3hCMWVUs/bqTWlaFsNPzRJVIkSVd2GpvIBm6RL6hburBd3+omp0/QB5sIw3mEWLp+RUaYB8EViR2/dumSfBDDg0OfbEFFMsTSUTOctilINGwVjTNVLz3eebFcQjT/rOpdiaWj7oMhCNtkw82eXxBk2dYvPTJgP+iGWgTKEFe1EWLpyd+E+GS1f0kuRx+kHz+YPJlTzR4+Vxb0s1XPn1g6umPFH+Z5RXN3252stuqF9OPxe4368W/mRwbFeFVhMrE39ExSUSKf61Zcdj8XX42eSD/xumt982ynzThqgmZBVC+9FEtHNysVOfDx+T7f7ebLT9Vy6/5IP/Pxubz8xhdTQ96EzryJahZELJ0O3kQ3OMxAv6T7QWfeRDXyS5Fu3pvUi6FKB7Wu6lekSDcskvVlqNLBr1A1tSnS1W/M9mao0oXL/Fmk0tHUvW3nOkeGKh0Nn6lIRIp0WwqFI0OVjgLYVCRCKh1lu4zSOwIlMWmC71LpKCAwSu8INA+iCXCkSDdtUenJUKWj360J6v5z0uefIVJHuHWgv9nbpEgPvAO6DOjHqxmls/Sm965mlM6CpKclzjgwSr+So01HEbkqgzNqeigdLVfO0XtH0vXrlJ0ZqnQ0TtfM16ZIT0mGdWGo0lHqWo7gDJJuW77oyFCll4q9I+mmV0l4MlTpaN8ZKhIhlp43XcqGi/TOf4UetNabikSIpafeXTkYqnQ68Saq1DWx9NR2JAej9D9UqWti6anDhBwMtE1HIXHVSEosHV3glORtDwYqHa3zzrPYAS2r6HrGZaDSUaWr2ilULB3VKV1nRg5UOupeqdZIiaWj3kPCpgQuDFR68ug5SXrXHd+BSqcTb0FFMuTS861gNDNM6WjnFl2dK5eOovyamfsMDFM6SovUTXjKpaMr3HH3/Zsy3+Q45sh9vEzf5+/T9DWoWtBGNrp0Rbn09J2sKsApG3Y6ad4920niPiw6UD9Ot8GBXDrqP/SuavSQ/oKmIVblvNM3tqAiIWnSu+7JqUmX/owetDPbQhnhKB6nnORWSEdrJY2bw3ZGqvQpp/zMtkhYGm3So4ySKaSjXmPnuZFK0qR/B/dAO1Eilwjddsq2RSEd9eQ6T55RkiRdsKHtNnvV57Ddu0b6v9Cop0hH9eo9uRcDoJGzdvMfjXRwxTqfXVWSIF363t/Ms1CoZ6XNRddIF77yvmbs0tl9H+/ImxlOX9JC++RppKMpdadtxR5fnufr3fz9RbWPnB6zdM37vXMuAoFvoKcyMRrpmRr1l7dWh3S2y9gZskrXvWgtY3QanYj6wVNJR6m3iSGJV5QRsF3neuCN0jUvnTmTr75CAzZ1E6uSjm6zpKHpJ5Dww0oXTZZilB4KySCy7aWJ8pf0ETKVdPgODioz8BGMdWSZzLFJ1zToP+Rq1lF6nN6ASrpL1/EP+AOaZAhmm6TL3jfTJlMFjxpY/dOhk45ueesIJRbSPOH/sJuks21QgDz75sLXGOrn93TS4StJqEwHHHrcMdOdXhyLdPV7Uy9k6ZP41O5K6W71u7g77JyXYpEuqJIAWeZeUO1u+CKldJ82RTME8m0cDdJhh1kAfdwTeCqqZQ4/KKX71C+yuv2HrWsNb5DOxmUm09eP1ynbs88QoUG5qZabS3lJfe411bDXdcxrkM6c7HXxGHNXZBir05FbWHqM2ucI1e/a71U2kp59eL10/N7vWXOLlw98X1CpH7BHaRnXaqWj9Bnlz4uOz29xHK/rpcPc+pvP4Bcou6dKooRM062llQ4TN1TNl+6V+Rfokw7opcM2+7Z3CTum7rPOdNwWpmpQ3U0Cl03XfMH7NYzfDLVeOmrP7vMk0Gy7d3wGVrKmGUm1dLRboSYSoZ2wuuA2btNLp79qcR88cJnmjoBuv8jJM6ilw/pdkSKEaooobpEOF+moYqOiFlTkBLyvbBM7aum4701lcSyTFye8AnNq6egeR7d46guU4qDEA2MVqJcOu7PiDrZ+lvKCV6dILR11O1HCK0qVpSIn6KAtjLEAvXT47duDEPr7O1bTj4fv12d2CE/fnYpaOopGoU19UrdrjQK7ccYd9w3SYT2TxuTv+jwy2p1WwrtU76ghRTUYFfkAQwFUpsUgXRM5l9Ea58MAs9caAhfpaCyGutZU5AJcXWONVRqkwx+Ywk2HAK4kcVo/pZYu7JY/UEkLKnMBVoDW6s8iHQ7V7dyFXtLGB0H00lG1et+UokkXz3V+cKLLPKVjkQ7vfjt00CtwWOczaNNLR2Ox+49QQQvP9U2w9jPPSZikG8ddGNAwoUfdZ9GcXjqcHroNFsG6yXGeCD9mVKbHJN0USuUANtHwxOcS6qXjaFL7TsUDUbfYMTNes9ckJumuXTlQb6MLbRyS3qCXzrRl++t0wxO+GrHjaoDjNftNZZPusoEbQYdsgsJgPjE5g3SuLTtMz8GFzZIJLHiud4CXO2GPVpt0z64cHbFJVdJtGdCutTusShJyNIzS2WxBPSBYiap3n+iMQbouo+8PxwEbDMykpOAZpcMJVhsgDQBVZz7JpRbptrCEY7KU+9jAKF2xMUMM0AlFvWGfi2iRbnrUUx7EG3DYmwpNWKU7BuDpiFdgFp1PE2mSbum2Oj7ocECY1MWxSkeXz8jd+cNahMoSMUk3/FbH/DicSEqFNszS/er321YdtqFO1aVNOr7uIcyX9R44k522FsB6djBGZKU1W4QrU6dRr026OlXfMQKLu8xpa2KN0p3n1BvjMWaLPp/Qu1W6sl7LPtWS2NgZpdN3u7GdX+7dJ5xBceLyrelYpeNhE4Nrwjsd84a0KIBNOnsJohOghqUOZ7yeHbN0xXSD6365XBQs6UVZJulsExdvaoxBTa+Xxdilo49CfN9bRge9J2UpgEU6u0xfssbGFNR0u5AJ0oWVlPMOFPyXJlR+FulcTSdapw63rYlhWrGFSJHO9TFbuG8CzVu3DxEM0rnfLpzxNszF+9WYSdKP6GVPLbZpQykI34U0f5leOjdak46kDWk3XouaUqXHHnavdTht2M6E6syb6KUz5yCPEakXSzhey1Tpxw2fHzixNJUSWOvWcYL6RJnZB83YVNmX8xwCJUs/aYexhO0ul/ITrHXj46A+Vfq6G1Shcbb3j6FPueAgHfdFnSKGDKx121BWK51p1HStruANOFe8hugXeiqd7f3amnWldLh8Rz97rEhG8b2afZXOWjftzKKUjmPj+qZFbN0xGeFMb6Wz1i0VoVI6fVMbS09LGKNxrdtP9Fc61/21JBropOMH3TSMfhT04feuy/rP9Fg63qzOFJjTSafvaWPNU43OUXtOSxM9ls71pwyjG5V0mC5jj5G+BB/2xsIhP/osndukSZ9UpJIOOxMpzS6fdDUz7GgtoNfS4RefoFI5Gukw6p44lfgOb6RFHuV9l86kVKgfdY10GJjRdQoAH/MbE4fn5GOy9Fw6M+VGhWI015e+ooVPZ+txufs6LA6ryTzzezf7Lh3nxmo78ArpMNPJb9azCH2Xjpt17VhdIR1NifomhOWn99JxJo2yelRIpy9oUey3OtF/6XC1jTIOLpeOJkT1F6xj+i8d7oyh/A1y6WiOJEPMLC//gHSYjaCLV8ulozvMLUu1FP+AdPQblP13uXQ6fAsq6g//gnSUsKYLkSVJd13AU4R/QXr64yeWjjKX86T85uSfkI7CcqpGXSwd9eNK/tLjgwcg0t8/6WgpoSrDSCwdBd5LhuOYecV0+icdVbqq5VRi6SgSREVFGKVfoe9sotqPRCwdJTxQURFG6VfoO5uowu9i6XTwJkUD76P0K2ikTkUiUqT7vQ1TwCj9CoqTUZGIFOmO+xzHGaVfQUnJVCRCKh3N3rsvwA8xSr+CxmyagbpUOprR89l3X8go/QrKJ9VMqUulo7kdn42ZhWSTrh+DdC4dRd9LSXfcFzFO5dLnj5lAgpB0TSb6+KT7SM8Gmt9AIfEc0lFHbmzTC4Ckl6re0UKqcchWgC6lo3F60WSpUfqVUr13JN1149sYo/QraJyumfFMke608b6MUfoVFJHLEZxJDvKnMkq/gpadUJEIsXQU5HffKCLAKP0K2s6BikSIpaNVsiXDUKP0KyhJjopEiKWjYQI6oVwg6au5FpAK0kPpVNSCikSIpaOQXMnuO5Ku37ogWzZsNoTSVdnoYunJt1cio/QrVNREtdpBLh01JAWXNY3S/0DbwKgCZXLpaHBYMBA7Sv8Dfb9qHkQuHW1Eob9gZkbpf6CBlOpSyKXDRr1c/T5K/wMtQVBtuqeQjhp153cTBRil/0ElLahIhkI63LmZyvIzSv8F7jBFZTIU0j12O7EzSv8Ffb1u3YlCOrpi5R71iqRv3jOBpkzvpaOlpLphlEY6isQWS36vSHo+6JSa3EtHqwp170LQSIc9iFKP+iidgK1sro2GTsB3khVKmhqlE/DtxlQmRCUdXXhddpadUTqBts1WjpxV0tE1K7VieZT+A9x/XbkCQScdv1CtSP77KP0HuP+6ch8YnXTmRVElKvhR+g/03y20P0EpHcclSqTFjtIvwG7cXbsfQSmdedQL7EkxSr9A/9tG+xodrXTm7ef5QzSj9DPwQVeHSrTS8SbzluuvZJR+hv6zjbZ210uHAaET3i/IvGWUfgJGx/R7OKqlM6/eVE7j6xmlcyNmfZxEL931/b5yRulM5W64Cgbp6PJfyGp9lI5O/gyVKjBIZyt4gwQ5o3TcoFsGThbp3C130+vwZfDSYfz1BBVrMEnnevDKzYhVDF06fs2qLUJiks50I8/McsXhBy6de85NOSw26Xyznm3ObdjS0Yr0C6arbZTOBebO5FnLOmjp+GXKJ2yvTrJKR5fvjxy7Cg5YOnyz8Q+2iJhZOkzK/GXvH54brnS0wwxhzE+0S+e78Gcm3vvRDFX6IvBwWd+LZ5eOs7WuOGfJDlV6COuDlSA9Zv13tOHDKP0O8z5PKdLxC36bTPze3DZKv8U+Nk6SfvwI9eYuHLxWsI/Sb0jYBSRN+vGbm2e9st25PO6j9DYpaYmJ0gNxgwZ7h3dA1Cv94+V5t17v5sun5BELnZKApEmOZOncjN8NK72gNnVKf5y3j7h6T6rW6Chx0tKP06Wz8z+3rHTrads8objvQt1/9ZX+jLo0i4RqjQ4RJXFc5CA9FCa84cs4ypiyXQdlF9ZTOj/pZE4Ip8/HSA1ze0iXNeyEwftTqLe4VdXxftJxBjqhO6kr9PEw2+QBkY/00FTrLerhJTutSCwUv8FL+mNs1KI5qSv04SDW2GsDJ+nHp+iIndCue5McWP5cOUlHL1G5xdKDoY+G8Ihue0kXP+zKuklyeRWBCh/pgXmvBobeFn0ygMsW+37Sj6/xQI16zwRpsyEdtrpIDySQtNCPq+iDLE57NTpKj3RufqC/FCJ7pM4IL4eHdKlzfQQFbgt4ZZsy5m3iKj0eqdH14hTdQ+EFdpAe61c2UcbHwykKfltuO0s/PoLLekXXi4P71rGImtB06ZobUT2ipk8hFo5pxt7Sj8eXQNOu6sVFJ25vkPRxkqXzyd8YnSr60D0zr5r9gr/004XhnnZdP0TSL2xBnwuRLF06Mv1FV7cxfZit80vLc0g/Hj+xMNUsFJvezyLIvU6VrmnQf1AN3HDl5p5Tnkc67uGqQtLayv1MvIJPlM5svhJENe0G49nKXkecPNJhN1R37vKB0ZV4XZoonWu3QqjaNHxXuTboJ/JIh7OtqkkINH0eJ3p10qTLpxObqPpy8LZyCLe3yCMddXd0Z2550AWPepp0xWRiA1WIBo8OnNeOZJEOKyld1Jg+pCV2dZKkh2MnPPRxGbALnJQcdU8W6WjkoXvQ2XmWyfR18zhle/axcDeqPRdSuOHabP74fdw8rbly1YALR6So0Iks0ulMW+gedGaMfu3/w7cInaBiDthkprG9/jLmVtVt/0QfamPPcUfkkI5qd+U0On2qzbY1+sH+IvW7v/SW0Q1+2KlUBrxzlJcvQg7pqPLVxZRgd+a28YW1QeSRcJd+02o9QOu6HAL6UBvXrlwO6eiHU5EQOOS73bEMTkRGRsXu0m+DjLAPq0uUhLFYvym2Exmko06uMosEDdjudcJbg8oYvKXf/y506rrON1wXqgkhRckgHfWxlEsAUF0BKjgqaUFFDN7S72cTHDo0sN3yrN8zSAeTEtp+CH2sBRU1QcGS8KSOs3T0u6ioBRUJgaM2Q8YdSwbp4DHVjjjoY03QVBNKaAjXKcxQ0AoKC6A7kYqk0KdaePbfM0ins2yiXdlHH2uCUn/R6CYc6aY/8gL10FDGGBVJgbEnKvPAXzqYlVD3QuhzTZB01HsIt330R15kkg5nm3TRrSD+0kFKrHq8QZ9rgsZi/2r1Du9Nx0bdXzq409U3KX2uCaot0PUN/yDnjhwKsFJRCyoSg+p3x3ce+ksH15VK5NDnWoBHmEpaUBGD95CNDtsAjbLVnTA4cU9lDvhLp1NsQiVyUITjvlFH/bhI98Fb+v2wBDXp+plR+mALKnKghHR9Yh9MLr971On/W0S+y1v6nQkYTtOFYc+ghis8LtHgLh0EYfULLeGLHm8rSZhcE7m+7tJvbzI44aLveKO73q/77i4dDDf0k8EP9Mk27a4MXkFVfGq1XXXj41OhAhSUM250AHCXDvoghrOFD0wzX4FbPkXFHP7Sm5sfv+DTNuQ1ogi+397a7tJBzWyol7j1r/vL7k3fSy5v0pIulcxheo44bt65gxvSXlDWv+EwDCWkG17dZc1BjKUrAC/ycGFsL1wO+riGnkkHoVHL+9psj2RUYJJ0YzzPsioJSfdb0OYuHXRBLN1O27qC6HVJk47fHh/Dcs+jSqVf0k2rciyPetxfmnTTo24Kn6KOXMW9d/A0mG5RmGwWIf5FidItj7rpZaToiyoep4N62ZbUp18VLBgaJUo3rLbS7zZ0Rj9prMFdOnhCdXsR/EGfliOIU6ZKj2wFdI/q6FdQzqc2E4XHXToYbBl/uHanD8mQJlU6s+qIx7ilJ6rmqMgBd+noATV+iW4vClF9kixdscvZGWvmA+oxUpEDRaRbF9VrmnVZrDNdOjoEi3m1KX2+SdVJFOAmNf92+QUW5ik4SFeclCUscwEN0z02hSX8pTskBl5B88oIaW6Kh3SxdbNz2Hn3i81kkI7yWeybpshqeHHV5yJdOHAz12/4CxyXuPhLR1GVhPZIsN+sIhDgI120bWTK/AgdogUVeeAvHZ5xODE5yCOepL6i2SfXSXp8amAmCBqwoHicYz8uh3Q03Eio6mJvBlJ1cLykx4Zu+qy4JqgnU/laNllWo4Zv/gqvdE+Un/TjB9+yJy4mh/smmkL4DBmkw6kSe0/2wsMOVvJv2nvJUfrxuIHRo23yMwlvcSpzIYN02Kin73r4tG63G9s3w7STq/QTn2/tm3G2S38iYdaQbd6GIYd0mKeadG1/eV2uJ1+H1WT3/mQ7cW/pZz7f15PV4WuyW/pUwXCU6jeveiKHdNy1Nc61+ZJDujNwzt73JHNIZxKY/RL77PRAOp1WG8++eybpTEDFOM3oSf3SceA5afBzRxbp+G71PnUL1UvH63YSxz635JHOjKu3eb5NQe3SmRQC5zoyjwYuq2jrl/Jjo3LpjHPDuqggmZ49LoS2TQlJO1C3dG5K0XW8diKTdLzs9ExykCaJmqVvuKx6z7mWC7laWX5GNG0uIpGKpfM59Y4z6T9k61rxE6LOXVEV1Ur/5qdvkmYoIdmkh1ao+C3Q0VKrdOb1AGcynF826cEJ50NXvfg6pU+51vxMhk5QPunh1X6u+5fLqVF6UHmWKYuM0iPvUOwkFF+f9OdwNliWs8soPbouaZfzyzGVSX+J5tVmiWtkve7RpNFV6TmYmqS/4Dh7C7/NhZrkfdjiP2u7dh+FhqhF+uscnMk9mXo+mWtY0VqFSbkoXQXSNy83eV88ufJOcjerssUg/20nTrlGEbqUvnmdzlfhblubbLlG2ftSqpWnX7vn5cvn0yPhf3JlpNPpP75+fn5Op8/z9ddK+nA3yBe5zC5d0K6z+Acgi0gPhaXkZMwpzC89skAlCB3BjyLSNVU4i2vO8w0FpJv2ZPrBPb+qhHT1vjSIrHORJaQfHw0t2gXHNdk/lJBuv8eveKdNtCki3dywuzfqJaSnN+n7zBmkhaSrd2Ui6NNulJCe3KT7JrkDSknXjd3+8L7lC0hPbdJn+QMW5aQfPw0tu3ejXkB6YpNeIpusoPRgfgiD92C1gPSkJt1xC6kARaUbxuz0OS8KSKfDWpgUslFYulq7cwOXX7r19Q8n5cVyyIpLPx7fNW27c32XX7pub9M/tiUzwzuQfjw+KYbt9BEn8kuno+oonEzSifQTS+lekL6xKTSGpiIftFtXnzi4xx1jdCX9xFI0cvedYKSDtqAiH6T38i9fXSzz6lD6iddd/CK5pgbSMVtQkQuRDOA2q/eOlnN2K/3M4/tXsGfnGn+nY7agIhekYcfFetrhDg3dS7/w8fL8tmCC1o5XB+7W5fi4xcdrs9XuvfNtWCqR/gual3Fs1eECO8euImystvvFYfI2X36+dvhwt6hMOuxe+1mBcWC/ETIKu3vvIuFBbdJRwM5vJA1zc/1qEjpgi243YcDUJh1OTLr15eh4N1BhMuiWkr5yoii1Scc5Nk6LHcEL/c84dazg5hvFAy8SqpOOR7o+8y7M2jqf+D6MxXlP4flQnXQ81PXZi4wOdgcVJ4FHa51usMNSn3T8qG8dhjtsnp5D64F3W6nzQa9QOpM567ADHZuxmO6GmWepskWvUjqXWZi6pjmQrJVaC6P3qJ2ocYx+pkLpbHJNoho6CiSty8ClBxRZiGugRulsPZwURgkumk55Jj+4+aKMSxDTqFI6uwfd1r4DXeSlfvY9H/ikP/qD+qhSeiDRbG/sz0Wz0Y09+MBxu9siMUad0kNLgyaWwZtgBYJlT58XkHP3i//iejcqlc4ETH9YqfvxolUW6iVkwV3/Kh2iX6hUemQ3sr1uACxMvlX1Ezf49YB/1NpzP1Or9OgORRPxLPtn2E4DcT/xIZrMW2f8lahWenhr2QuHpWB4/arKT90LbqXHefzUKm7QT9QrXbbkd/UerEengZ4WZvscuJO+nwTpuyd887bdqVd6uDPX4rB+/7wfyr0+Czexu2U/v59h/3h5X4vrjCozJxpULF2/e8VscTh8Td7W68mXqlJHzFanA71Nvg6HRbw2v6Hmi3qm6vNLXN/fEZ2/hyxK3TdlPut7dWMvpfs3Dkap/AwN6wFFbCWjAxO1t+dnar8tQ+//SWBz+uXi4buGWqfQW1RfF33neCIvwzz7nhE8OTf39KP+Bsi2F1kQWoDgX4vkeRGDOz2QHpsKV/MXznF+1rdFX1KRQB+kHz88u9rNDMuNZ7teZjswD3oh3bIDHcesNYp+cOsxFNjo0Y2eSD9+O7XsdzMhPjvy1z2rdktfpJ8aYGMkvQWYh/cIAHX0Pkkr/ZHuoH0GM62+U3sM2Xdt9qZP0k8dr+jr/UKw6TbThP7crCfDtCb9kn4i/qZKhmDn2joqfOvLKK1F76SfWBq8x3Jovw11iDxjqzL6KP3Ep2Kj0dPQXNS3XmqGb7Ndj4Zot/RU+onN9E3WFK/ED+ST7IiLXV8fcaK/0i+8Lt+Cfe/tm9LPRzjr8bCeGpfY1ETPpf+weVru3lbtzQe3izfrLn2Py/WhrX6/muyWTw77ItTBPyH9Brff9C9enDP/6u8aCTBKHyCj9AEySh8go/QBMkofIKP0ATJKHyCj9AEySh8go/QBMkofIKP0ATJKHyCj9AEySh8go/QBMkofIKP0ATJKHyCj9AEySh8go/TBcTz+D7O0IJffjgMVAAAAAElFTkSuQmCC;" vertex="1" parent="hnWGfaP_TE1rImXRO845-1">
          <mxGeometry x="375" y="120" width="30" height="30" as="geometry" />
        </mxCell>
        <mxCell id="6yq1hyyVoBi7szEFriC6-11" style="edgeStyle=none;rounded=0;orthogonalLoop=1;jettySize=auto;html=1;exitX=0;exitY=0.5;exitDx=0;exitDy=0;entryX=1;entryY=0.5;entryDx=0;entryDy=0;entryPerimeter=0;fontColor=default;" edge="1" parent="hnWGfaP_TE1rImXRO845-1" source="6yq1hyyVoBi7szEFriC6-5" target="hnWGfaP_TE1rImXRO845-4">
          <mxGeometry relative="1" as="geometry" />
        </mxCell>
        <mxCell id="6yq1hyyVoBi7szEFriC6-5" value="&lt;div&gt;&lt;span&gt;&lt;b&gt;GitHub&lt;/b&gt;&lt;/span&gt;&lt;/div&gt;&lt;div&gt;&lt;span&gt;-Activity&lt;/span&gt;&lt;/div&gt;&lt;div&gt;&lt;span&gt;-Open source contributions&lt;/span&gt;&lt;/div&gt;&lt;div&gt;&lt;span&gt;-Project stars&lt;/span&gt;&lt;/div&gt;&lt;div&gt;&lt;br&gt;&lt;/div&gt;&lt;div&gt;&lt;span&gt;&lt;b&gt;Likendin&lt;/b&gt;&lt;/span&gt;&lt;/div&gt;&lt;div&gt;&lt;span&gt;- Certifications&lt;/span&gt;&lt;/div&gt;&lt;div&gt;&lt;br&gt;&lt;/div&gt;&lt;div&gt;&lt;span&gt;&lt;b&gt;Leetcode&lt;/b&gt;&lt;/span&gt;&lt;/div&gt;&lt;div&gt;&lt;span&gt;-problems solved&lt;/span&gt;&lt;/div&gt;&lt;div&gt;&lt;span&gt;-Acceptance rate&lt;/span&gt;&lt;/div&gt;" style="whiteSpace=wrap;html=1;fontSize=13;fontColor=#000000;align=left;" vertex="1" parent="hnWGfaP_TE1rImXRO845-1">
          <mxGeometry x="690" y="430" width="120" height="200" as="geometry" />
        </mxCell>
        <mxCell id="6yq1hyyVoBi7szEFriC6-15" value="&lt;b&gt;SUMMARY&lt;/b&gt;" style="whiteSpace=wrap;html=1;sketch=0;fontColor=default;strokeColor=#000000;fillColor=default;gradientColor=none;align=center;rounded=0;shadow=0;strokeWidth=1;" vertex="1" parent="hnWGfaP_TE1rImXRO845-1">
          <mxGeometry x="297.5" y="755" width="120" height="60" as="geometry" />
        </mxCell>
        <mxCell id="6yq1hyyVoBi7szEFriC6-16" value="&lt;b&gt;RANKING&lt;/b&gt;" style="whiteSpace=wrap;html=1;sketch=0;fontColor=default;strokeColor=#000000;fillColor=default;gradientColor=none;align=center;rounded=0;shadow=0;strokeWidth=1;" vertex="1" parent="hnWGfaP_TE1rImXRO845-1">
          <mxGeometry x="520" y="755" width="120" height="60" as="geometry" />
        </mxCell>
        <mxCell id="6yq1hyyVoBi7szEFriC6-17" value="Attributes" style="swimlane;childLayout=stackLayout;horizontal=1;startSize=30;horizontalStack=0;rounded=1;fontSize=14;fontStyle=0;strokeWidth=2;resizeParent=0;resizeLast=1;shadow=0;dashed=0;align=center;" vertex="1" parent="hnWGfaP_TE1rImXRO845-1">
          <mxGeometry x="60" y="465" width="160" height="200" as="geometry" />
        </mxCell>
        <mxCell id="6yq1hyyVoBi7szEFriC6-18" value="NAME&#xa;EMAIL&#xa;PHONE&#xa;&#xa;ROLES&#xa;SKILL&#xa;PERIOD EXPERIENCE&#xa;EDUCATION (TABLE)&#xa;COMPANIES WORKED&#xa;&#xa;LINKS&#xa;&#xa;&#xa;" style="align=left;strokeColor=none;fillColor=none;spacingLeft=4;fontSize=11;verticalAlign=top;resizable=0;rotatable=0;part=1;" vertex="1" parent="6yq1hyyVoBi7szEFriC6-17">
          <mxGeometry y="30" width="160" height="170" as="geometry" />
        </mxCell>
        <mxCell id="6yq1hyyVoBi7szEFriC6-26" style="edgeStyle=none;rounded=0;orthogonalLoop=1;jettySize=auto;html=1;exitX=0.5;exitY=1;exitDx=0;exitDy=0;entryX=0.5;entryY=0;entryDx=0;entryDy=0;fontSize=11;fontColor=default;" edge="1" parent="hnWGfaP_TE1rImXRO845-1" source="6yq1hyyVoBi7szEFriC6-23" target="6yq1hyyVoBi7szEFriC6-15">
          <mxGeometry relative="1" as="geometry" />
        </mxCell>
        <mxCell id="6yq1hyyVoBi7szEFriC6-27" style="edgeStyle=none;rounded=0;orthogonalLoop=1;jettySize=auto;html=1;exitX=0.5;exitY=1;exitDx=0;exitDy=0;entryX=0.5;entryY=0;entryDx=0;entryDy=0;fontSize=11;fontColor=default;" edge="1" parent="hnWGfaP_TE1rImXRO845-1" source="6yq1hyyVoBi7szEFriC6-23" target="6yq1hyyVoBi7szEFriC6-16">
          <mxGeometry relative="1" as="geometry" />
        </mxCell>
        <mxCell id="6yq1hyyVoBi7szEFriC6-23" value="" style="image;html=1;image=img/lib/clip_art/computers/Database_128x128.png;gradientColor=none;rounded=0;shadow=0;sketch=0;fontSize=11;fontColor=default;strokeColor=#000000;strokeWidth=1;align=center;" vertex="1" parent="hnWGfaP_TE1rImXRO845-1">
          <mxGeometry x="435" y="595" width="40" height="60" as="geometry" />
        </mxCell>
        <mxCell id="6yq1hyyVoBi7szEFriC6-29" value="&lt;b&gt;INPUT FILES&lt;/b&gt;" style="text;html=1;align=center;verticalAlign=middle;resizable=0;points=[];autosize=1;strokeColor=none;fillColor=none;fontSize=11;fontColor=default;" vertex="1" parent="hnWGfaP_TE1rImXRO845-1">
          <mxGeometry x="23.75" y="90" width="80" height="20" as="geometry" />
        </mxCell>
        <mxCell id="6yq1hyyVoBi7szEFriC6-30" value="FILE CONVERSION" style="text;html=1;align=center;verticalAlign=middle;resizable=0;points=[];autosize=1;strokeColor=none;fillColor=none;fontSize=11;fontColor=default;" vertex="1" parent="hnWGfaP_TE1rImXRO845-1">
          <mxGeometry x="157.05" y="80" width="120" height="20" as="geometry" />
        </mxCell>
        <mxCell id="6yq1hyyVoBi7szEFriC6-31" value="Machine learning" style="text;html=1;align=center;verticalAlign=middle;resizable=0;points=[];autosize=1;strokeColor=none;fillColor=none;fontSize=11;fontColor=default;" vertex="1" parent="hnWGfaP_TE1rImXRO845-1">
          <mxGeometry x="410" width="100" height="20" as="geometry" />
        </mxCell>
        <mxCell id="6yq1hyyVoBi7szEFriC6-32" value="NER" style="text;html=1;align=center;verticalAlign=middle;resizable=0;points=[];autosize=1;strokeColor=none;fillColor=none;fontSize=11;fontColor=default;" vertex="1" parent="hnWGfaP_TE1rImXRO845-1">
          <mxGeometry x="405" y="125" width="40" height="20" as="geometry" />
        </mxCell>
        <mxCell id="6yq1hyyVoBi7szEFriC6-33" value="RNN" style="text;html=1;align=center;verticalAlign=middle;resizable=0;points=[];autosize=1;strokeColor=none;fillColor=none;fontSize=11;fontColor=default;" vertex="1" parent="hnWGfaP_TE1rImXRO845-1">
          <mxGeometry x="540" y="125" width="40" height="20" as="geometry" />
        </mxCell>
        <mxCell id="6yq1hyyVoBi7szEFriC6-44" style="edgeStyle=none;rounded=0;orthogonalLoop=1;jettySize=auto;html=1;exitX=0.5;exitY=1;exitDx=0;exitDy=0;entryX=0.083;entryY=0;entryDx=0;entryDy=0;entryPerimeter=0;fontSize=11;fontColor=default;" edge="1" parent="hnWGfaP_TE1rImXRO845-1" source="6yq1hyyVoBi7szEFriC6-35" target="hnWGfaP_TE1rImXRO845-7">
          <mxGeometry relative="1" as="geometry" />
        </mxCell>
        <mxCell id="6yq1hyyVoBi7szEFriC6-35" value="NAME&lt;br&gt;EMAIL&lt;br&gt;PHONE" style="whiteSpace=wrap;html=1;rounded=0;shadow=0;sketch=0;fontSize=11;fontColor=default;strokeColor=#000000;strokeWidth=1;fillColor=default;gradientColor=none;align=center;" vertex="1" parent="hnWGfaP_TE1rImXRO845-1">
          <mxGeometry x="350" y="230" width="80" height="70" as="geometry" />
        </mxCell>
        <mxCell id="6yq1hyyVoBi7szEFriC6-45" style="edgeStyle=none;rounded=0;orthogonalLoop=1;jettySize=auto;html=1;exitX=0.5;exitY=1;exitDx=0;exitDy=0;entryX=0.867;entryY=0.05;entryDx=0;entryDy=0;entryPerimeter=0;fontSize=11;fontColor=default;" edge="1" parent="hnWGfaP_TE1rImXRO845-1" source="6yq1hyyVoBi7szEFriC6-38" target="hnWGfaP_TE1rImXRO845-7">
          <mxGeometry relative="1" as="geometry" />
        </mxCell>
        <mxCell id="6yq1hyyVoBi7szEFriC6-38" value="&lt;span style=&quot;font-size: 12px ; text-align: left&quot;&gt;ROLES&lt;/span&gt;&lt;br style=&quot;padding: 0px ; margin: 0px ; font-size: 12px ; text-align: left&quot;&gt;&lt;span style=&quot;font-size: 12px ; text-align: left&quot;&gt;SKILL&lt;/span&gt;&lt;br style=&quot;padding: 0px ; margin: 0px ; font-size: 12px ; text-align: left&quot;&gt;&lt;span style=&quot;font-size: 12px ; text-align: left&quot;&gt;PERIOD EXPERIENCE&lt;/span&gt;&lt;br style=&quot;padding: 0px ; margin: 0px ; font-size: 12px ; text-align: left&quot;&gt;&lt;span style=&quot;font-size: 12px ; text-align: left&quot;&gt;EDUCATION (TABLE)&lt;/span&gt;&lt;br style=&quot;padding: 0px ; margin: 0px ; font-size: 12px ; text-align: left&quot;&gt;&lt;span style=&quot;font-size: 12px ; text-align: left&quot;&gt;COMPANIES WORKED&lt;/span&gt;" style="whiteSpace=wrap;html=1;rounded=0;shadow=0;sketch=0;fontSize=11;fontColor=default;strokeColor=#000000;strokeWidth=1;fillColor=default;gradientColor=none;align=center;" vertex="1" parent="hnWGfaP_TE1rImXRO845-1">
          <mxGeometry x="475" y="230" width="100" height="130" as="geometry" />
        </mxCell>
      </root>
    </mxGraphModel>
  </diagram>
</mxfile>
